<?xml version="1.0" encoding="UTF-8"?>
<svg width="99px" height="89px" viewBox="0 0 99 89" version="1.1" xmlns="http://www.w3.org/2000/svg" xmlns:xlink="http://www.w3.org/1999/xlink">
    <!-- Generator: Sketch 46.2 (44496) - http://www.bohemiancoding.com/sketch -->
    <title>bu_logo_trans</title>
    <desc>Created with Sketch.</desc>
    <defs></defs>
    <g id="Page-1" stroke="none" stroke-width="1" fill="none" fill-rule="evenodd">
        <g id="bu_logo_trans" fill-rule="nonzero">
            <g id="BuckleUp" transform="translate(0.000000, 65.000000)" fill="#66CCFF">
                <path d="M10.92,8 C12.7764469,9.12264173 13.6615243,11.3416176 13.0873486,13.4337557 C12.5131729,15.5258938 10.6194248,16.9822364 8.45,17 L2,17 L2,3.33 L0.77,3.33 L0.77,0.47 L6.86,0.47 C8.64961575,0.463456775 10.2974071,1.44297221 11.1467424,3.01821724 C11.9960777,4.59346227 11.9089196,6.50842188 10.92,8 L10.92,8 Z M4.92,7.32 L6.92,7.32 C8.0245695,7.32 8.92,6.4245695 8.92,5.32 C8.92,4.2154305 8.0245695,3.32 6.92,3.32 L4.92,3.32 L4.92,7.32 Z M8.49,14.16 C9.5945695,14.16 10.49,13.2645695 10.49,12.16 C10.49,11.0554305 9.5945695,10.16 8.49,10.16 L4.88,10.16 L4.88,14.16 L8.49,14.16 Z" id="Shape"></path>
                <path d="M24.33,6.6 L24.33,17 L21.47,17 L21.47,16.67 C20.0599933,17.2374839 18.4603091,17.068502 17.1999914,16.2189396 C15.9396737,15.3693773 15.1829192,13.9499172 15.18,12.43 L15.18,6.6 L18,6.6 L18,12.45 C18,13.3971683 18.7678317,14.165 19.715,14.165 C20.6621683,14.165 21.43,13.3971683 21.43,12.45 L21.43,6.6 L24.33,6.6 Z" id="Shape"></path>
                <path d="M32.86,13.44 L34.86,15.44 C33.3708473,16.9324095 31.1290411,17.380242 29.1808002,16.5745006 C27.2325593,15.7687591 25.9619517,13.8682841 25.9619517,11.76 C25.9619517,9.65171588 27.2325593,7.7512409 29.1808002,6.94549943 C31.1290411,6.13975796 33.3708473,6.58759049 34.86,8.08 L32.86,10.08 C32.1882836,9.4069077 31.1771297,9.20496999 30.2984045,9.56842335 C29.4196794,9.9318767 28.8465999,10.7890761 28.8465999,11.74 C28.8465999,12.6909239 29.4196794,13.5481233 30.2984045,13.9115767 C31.1771297,14.27503 32.1882836,14.0730923 32.86,13.4 L32.86,13.44 Z" id="Shape"></path>
                <path d="M44.65,8 C44.6507509,9.03151597 44.2736675,10.0275853 43.59,10.8 C44.2736675,11.5724147 44.6507509,12.568484 44.65,13.6 L44.65,17 L41.79,17 L41.79,13.6 C41.8341683,13.0844395 41.5840891,12.5879812 41.1435163,12.3165976 C40.7029435,12.0452139 40.1470565,12.0452139 39.7064837,12.3165976 C39.2659109,12.5879812 39.0158317,13.0844395 39.06,13.6 L39.06,17 L36.2,17 L36.2,0.47 L39.06,0.47 L39.06,9.64 C39.5006877,9.48763734 39.9637168,9.40990252 40.43,9.41 C40.7986466,9.40746651 41.1507153,9.25646834 41.4066469,8.9911275 C41.6625785,8.72578665 41.8007724,8.3684979 41.79,8 L41.79,6.61 L44.65,6.61 L44.65,8 Z" id="Shape"></path>
                <polygon id="Shape" points="46.54 17 46.54 0.48 49.4 0.48 49.4 17"></polygon>
                <path d="M58.73,13.18 L60.58,15.36 C59.4564493,16.4222661 57.9661823,17.0097751 56.42,17 C54.7685819,17.0211961 53.1985965,16.2841138 52.16,15 L52.16,15 C51.9623308,14.7499658 51.7882534,14.4821545 51.64,14.2 L51.64,14.2 C51.4402351,13.8204698 51.2890464,13.4172997 51.19,13 L51.19,13 C50.6344267,10.578559 51.8658462,8.10170596 54.1317501,7.0830217 C56.397654,6.06433744 59.0675958,6.7872523 60.51,8.81 L60.51,8.81 L60.62,8.98 L60.69,9.09 L60.82,9.31 L60.87,9.4 L61.02,9.7 L61.02,9.7 L61.02,9.7 L61.02,9.7 L61.02,9.7 L61.02,9.7 L61.02,9.7 L61.58,11.03 L58.69,12.22 L58.3,12.38 L55.12,13.7 C55.4829136,13.9237445 55.9039246,14.0350862 56.33,14.02 C57.2104037,14.0740966 58.0754908,13.7713161 58.73,13.18 L58.73,13.18 Z M54.06,11.46 L54.16,11.46 L55.86,10.76 L57.63,10 L57.63,10 C57.2314728,9.69377658 56.7425877,9.52847008 56.24,9.53 C55.9611002,9.52956953 55.6851933,9.5874759 55.43,9.7 C54.696709,10.0275983 54.1936388,10.7212254 54.11,11.52 L54.06,11.46 Z" id="Shape"></path>
                <path d="M74.75,14.14 L74.75,17 L73.32,17 C72.5472622,16.9877086 71.8177589,16.6411945 71.32,16.05 C69.7230412,17.1683119 67.6366202,17.3055387 65.9069461,16.4060242 C64.1772721,15.5065096 63.0915013,13.7195888 63.09,11.77 L63.09,0.45 L65.95,0.45 L65.95,11.77 C66.0311002,13.0165451 67.0658195,13.9861332 68.315,13.9861332 C69.5641805,13.9861332 70.5988998,13.0165451 70.68,11.77 L70.68,0.45 L73.54,0.45 L73.54,14.14 L74.75,14.14 Z" id="Shape"></path>
                <path d="M86.22,9.94 C86.9961787,11.9526925 86.4517384,14.2355618 84.8507541,15.6813259 C83.2497699,17.12709 80.9233897,17.4367069 79,16.46 L79,23.16 L76.16,23.16 L76.16,6.6 L79,6.6 L79,7.16 C80.3134418,6.50002084 81.8445626,6.425585 83.2158293,6.95504633 C84.5870961,7.48450766 85.6708984,8.56859438 86.2,9.94 L86.22,9.94 Z M83.71,11.81 C83.71,10.5121308 82.6578692,9.46 81.36,9.46 C80.0621308,9.46 79.01,10.5121308 79.01,11.81 C79.01,13.1078692 80.0621308,14.16 81.36,14.16 C82.6578692,14.16 83.71,13.1078692 83.71,11.81 L83.71,11.81 Z" id="Shape"></path>
            </g>
            <g id="U" transform="translate(44.000000, 0.000000)">
                <rect id="Rectangle-path" fill="#66CCFF" transform="translate(11.674399, 10.340761) rotate(10.010000) translate(-11.674399, -10.340761) " x="2.79939881" y="1.46576079" width="17.75" height="17.75"></rect>
                <rect id="Rectangle-path" fill="#66CCFF" transform="translate(44.276940, 16.099613) rotate(10.010000) translate(-44.276940, -16.099613) " x="35.4019395" y="7.22461272" width="17.75" height="17.75"></rect>
                <path d="M34,23.29 L31.5,36.85 C31.205579,39.132471 30.0849245,41.2279171 28.35,42.74 C26.8181859,44.0607373 24.7653608,44.6061917 22.78,44.22 C20.7030354,43.8624679 18.8809442,42.6270901 17.78,40.83 C16.5336518,38.8672139 16.1097766,36.4927943 16.6,34.22 L18.9,20.62 L1.39,17.54 L0.81,20.84 C6.92011556,23.507637 11.3462486,28.9863043 12.6702277,35.5205891 C13.9942068,42.054874 12.0497955,48.8243432 7.46,53.66 C11.2169839,56.3508248 15.5534061,58.1217018 20.12,58.83 C24.6368848,59.7322282 29.3043728,59.5367492 33.73,58.26 C37.6718903,57.0884321 41.1857625,54.7910339 43.84,51.65 C46.5973085,48.3052926 48.4068647,44.2821381 49.08,40 L51.48,26.42 L34,23.29 Z" id="Shape" fill="#FF738E"></path>
            </g>
            <path d="M18.43,12.87 C23.1773644,12.8755106 27.0244894,16.7226356 27.03,21.47 L27.03,31 L36.56,31 C41.3124103,31 45.165,34.8525897 45.165,39.605 C45.165,44.3574103 41.3124103,48.21 36.56,48.21 L9.83,48.21 L9.83,21.47 C9.83551059,16.7226356 13.6826356,12.8755106 18.43,12.87 L18.43,12.87 Z M18.43,3.34 C13.621625,3.34 9.0101886,5.25011952 5.61015406,8.65015406 C2.21011952,12.0501886 0.3,16.661625 0.3,21.47 L0.3,57.73 L36.56,57.73 C46.5729225,57.73 54.69,49.6129225 54.69,39.6 C54.69,29.5870775 46.5729225,21.47 36.56,21.47 C36.56,16.661625 34.6498805,12.0501886 31.2498459,8.65015406 C27.8498114,5.25011952 23.238375,3.34 18.43,3.34 Z" id="B" fill="#FF738E"></path>
        </g>
    </g>
</svg>